<?xml version="1.0" encoding="UTF-8" standalone="no"?>
<svg
   xmlns:dc="http://purl.org/dc/elements/1.1/"
   xmlns:cc="http://creativecommons.org/ns#"
   xmlns:rdf="http://www.w3.org/1999/02/22-rdf-syntax-ns#"
   xmlns:svg="http://www.w3.org/2000/svg"
   xmlns="http://www.w3.org/2000/svg"
   xmlns:sodipodi="http://sodipodi.sourceforge.net/DTD/sodipodi-0.dtd"
   xmlns:inkscape="http://www.inkscape.org/namespaces/inkscape"
   height="16"
   viewBox="0 0 16 16"
   width="16"
   version="1.1"
   id="svg4"
   sodipodi:docname="SpatialTool.svg"
   inkscape:version="1.0.2 (e86c870879, 2021-01-15)">
  <metadata
     id="metadata10">
    <rdf:RDF>
      <cc:Work
         rdf:about="">
        <dc:format>image/svg+xml</dc:format>
        <dc:type
           rdf:resource="http://purl.org/dc/dcmitype/StillImage" />
        <dc:title></dc:title>
      </cc:Work>
    </rdf:RDF>
  </metadata>
  <defs
     id="defs8" />
  <sodipodi:namedview
     pagecolor="#ffffff"
     bordercolor="#666666"
     borderopacity="1"
     objecttolerance="10"
     gridtolerance="10"
     guidetolerance="10"
     inkscape:pageopacity="0"
     inkscape:pageshadow="2"
     inkscape:window-width="1920"
     inkscape:window-height="1005"
     id="namedview6"
     showgrid="false"
     inkscape:zoom="50.75"
     inkscape:cx="8"
     inkscape:cy="8"
     inkscape:window-x="0"
     inkscape:window-y="0"
     inkscape:window-maximized="1"
     inkscape:current-layer="svg4" />
  <path
     d="M 8,2 A 6,6 0 0 0 2,8 6,6 0 0 0 8,14 6,6 0 0 0 14,8 6,6 0 0 0 8,2 Z M 8,4 A 4,4 0 0 1 12,8 4,4 0 0 1 8,12 4,4 0 0 1 4,8 4,4 0 0 1 8,4 Z"
     fill="#fc7f7f"
     fill-opacity=".99608"
     id="path2"
     sodipodi:insensitive="true" />
  <g
     id="g947"
     transform="translate(-0.15657641,-0.41144173)">
    <rect
       style="fill:#fc7f7f;fill-opacity:1"
       id="rect36"
       width="1.3321474"
       height="4.8871503"
       x="7.3820748"
       y="6.2941542" />
    <g
       id="g920"
       transform="translate(0.90044389,0.0650336)">
      <rect
         style="fill:#fc7f7f;fill-opacity:1;stroke-width:0.806915"
         id="rect36-6"
         width="1.3321474"
         height="3.1820843"
         x="5.9096136"
         y="-9.4374189"
         transform="rotate(90)"
         inkscape:transform-center-x="-0.80269327"
         inkscape:transform-center-y="0.33562879" />
      <path
         style="fill:#fc7f7f;fill-opacity:1;stroke:none;stroke-width:1px;stroke-linecap:butt;stroke-linejoin:miter;stroke-opacity:1"
         d="m 6.3698478,5.9096136 c 0,0 -1.1683632,-0.015532 -1.2715086,1.7184704 -0.1031455,1.7340022 -0.1263474,-0.3543655 1.2715086,-0.3863228 1.397856,-0.031957 0,-1.3321476 0,-1.3321476 z"
         id="path916"
         inkscape:transform-center-x="1.0200587"
         inkscape:transform-center-y="0.87259889" />
    </g>
    <rect
       style="fill:#fc7f7f;fill-opacity:1;stroke-width:0.60149"
       id="rect36-1"
       width="1.3321474"
       height="1.7681221"
       x="9.0057154"
       y="5.7414417" />
  </g>
</svg>
